<svg width="129" height="97" viewBox="0 0 129 97" fill="none" xmlns="http://www.w3.org/2000/svg">
<path d="M2 42.5419H11.9214C12.0908 42.5419 12.2487 42.4561 12.3409 42.314L15.827 36.939C16.0582 36.5825 16.6004 36.6586 16.7246 37.0649L19.716 46.8483C19.8666 47.341 20.574 47.3113 20.6828 46.8077L23.8708 32.0618C23.9898 31.5112 24.787 31.5474 24.8557 32.1065L27.8285 56.2746C27.9011 56.8648 28.7593 56.8576 28.822 56.2663L31.985 26.4633C32.0494 25.8567 32.9374 25.8719 32.9809 26.4804L35.6464 63.7422C35.6903 64.3563 36.5893 64.3636 36.6432 63.7503L40.5207 19.6241C40.5741 19.0162 41.4625 19.0156 41.5168 19.6234L44.182 49.4846C44.2341 50.0691 45.0766 50.1012 45.1732 49.5224L48.2779 30.906C48.3701 30.3536 49.1618 30.3472 49.2629 30.898L51.9286 45.4204C52.0207 45.9223 52.7172 45.98 52.8906 45.5001L56.4484 35.6542C56.5958 35.2463 57.157 35.2067 57.3603 35.5898L60.9086 42.2763C60.9953 42.4398 61.1652 42.5419 61.3502 42.5419H73" stroke="white" stroke-width="4" stroke-linecap="round"/>
<path d="M77.288 47.384C76.008 47.384 74.904 46.952 73.976 46.088C73.08 45.192 72.632 44.056 72.632 42.68C72.632 41.304 73.08 40.2 73.976 39.368C74.904 38.504 76.008 38.072 77.288 38.072C78.6 38.072 79.704 38.504 80.6 39.368C81.496 40.2 81.944 41.304 81.944 42.68C81.944 44.056 81.496 45.192 80.6 46.088C79.704 46.952 78.6 47.384 77.288 47.384Z" fill="#107C10"/>
</svg>
