<svg width="78" height="56" viewBox="0 0 78 56" fill="none" xmlns="http://www.w3.org/2000/svg">
<path d="M2 28.5419H11.9214C12.0908 28.5419 12.2487 28.4561 12.3409 28.314L15.827 22.939C16.0582 22.5825 16.6004 22.6586 16.7246 23.0649L19.716 32.8483C19.8666 33.341 20.574 33.3113 20.6828 32.8077L23.8708 18.0618C23.9898 17.5112 24.787 17.5474 24.8557 18.1065L27.8285 42.2746C27.9011 42.8648 28.7593 42.8576 28.822 42.2663L31.985 12.4633C32.0494 11.8567 32.9374 11.8719 32.9809 12.4804L35.6464 49.7422C35.6903 50.3563 36.5893 50.3636 36.6432 49.7503L40.5207 5.62407C40.5741 5.01618 41.4625 5.01558 41.5168 5.62339L44.182 35.4846C44.2341 36.0691 45.0766 36.1012 45.1732 35.5224L48.2779 16.906C48.3701 16.3536 49.1618 16.3472 49.2629 16.898L51.9286 31.4204C52.0207 31.9223 52.7172 31.98 52.8906 31.5001L56.4484 21.6542C56.5958 21.2463 57.157 21.2067 57.3603 21.5898L60.9086 28.2763C60.9953 28.4398 61.1652 28.5419 61.3502 28.5419H73" stroke="black" stroke-width="4" stroke-linecap="round"/>
<g clip-path="url(#clip0_630_44)">
<path d="M73.2888 32.3823C72.0088 32.3823 70.9048 31.9503 69.9768 31.0863C69.0808 30.1903 68.6328 29.0543 68.6328 27.6783C68.6328 26.3023 69.0808 25.1983 69.9768 24.3663C70.9048 23.5023 72.0088 23.0703 73.2888 23.0703C74.6008 23.0703 75.7048 23.5023 76.6008 24.3663C77.4968 25.1983 77.9448 26.3023 77.9448 27.6783C77.9448 29.0543 77.4968 30.1903 76.6008 31.0863C75.7048 31.9503 74.6008 32.3823 73.2888 32.3823Z" fill="#107C10"/>
</g>
<defs>
<clipPath id="clip0_630_44">
<rect width="10" height="10" fill="white" transform="translate(68 23)"/>
</clipPath>
</defs>
</svg>
